{"title":"Shredder 2003 DVDRip Xvid LKRG","uid":6504429,"size":895277893,"categoryP":"video","categoryS":"movies","magnet":"?xt=urn:btih:f8138af2fcbfed4e103ea32791da154d251a28dc&amp;dn=Shredder+2003+DVDRip+Xvid+LKRG&amp;tr=udp%3A%2F%2Ftracker.openbittorrent.com%3A80&amp;tr=udp%3A%2F%2Fopen.demonii.com%3A1337&amp;tr=udp%3A%2F%2Ftracker.coppersurfer.tk%3A6969&amp;tr=udp%3A%2F%2Fexodus.desync.com%3A6969","seeders":1,"leechers":1,"uploader":".BONE.","files":2,"time":1309372295,"description":"PLOT\n\nAt an exclusive, secluded North American ski resort up on Mount Rocky\nSummit, brutal slashing, severing and beheading on a group of teenagers\nare taking place and are believed to be the work of a mysterious skier\ndressed in black.\n\n\nEncoded By .......: BigPerm\nRuntime ..........: 1h 26mn\nFile Size ........: 854 MB\nResolution .......: 704x396\nIMDb URL .........: http://www.imdb.com/title/tt0282163/\nGenre ............: Comedy | Horror\nLanguage .........: English\nVideo\nID : 0\nFormat : MPEG-4 Visual\nFormat profile : Advanced Simple@L5\nFormat settings, BVOP : Yes\nFormat settings, QPel : No\nFormat settings, GMC : No warppoints\nFormat settings, Matrix : Default (H.263)\nCodec ID : XVID\nCodec ID/Hint : XviD\nDuration : 1h 26mn\nBit rate : 1 191 Kbps\nWidth : 704 pixels\nHeight : 396 pixels\nDisplay aspect ratio : 16:9\nFrame rate : 23.976 fps\nColor space : YUV\nChroma subsampling : 4:2:0\nBit depth : 8 bits\nScan type : Progressive\nCompression mode : Lossy\nBits/(Pixel*Frame) : 0.178\nStream size : 733 MiB (86%)\nWriting library : XviD 1.2.1 (UTC 2008-12-04)\n\nAudio\nID : 1\nFormat : AC-3\nFormat/Info : Audio Coding 3\nFormat profile : Dolby Digital\nMode extension : CM (complete main)\nCodec ID : 2000\nDuration : 1h 26mn\nBit rate mode : Constant\nBit rate : 192 Kbps\nChannel(s) : 2 channels\nChannel positions : Front: L R\nSampling rate : 48.0 KHz\nBit depth : 16 bits\nCompression mode : Lossy\nVideo delay : 42ms\nStream size : 118 MiB (14%)\nAlignment : Split accross interleaves\nInterleave, duration : 500 ms (11.99 video frames)\nInterleave, preload duration : 500 ms\n &lt;a href=&quot;\nhttp://leetleech.org/images/12866102853102548033.png&quot; rel=&quot;nofollow&quot; target=&quot;_NEW&quot;&gt;\nhttp://leetleech.org/images/12866102853102548033.png&lt;/a&gt;\n &lt;a href=&quot;\nhttp://leetleech.org/images/35685353064769212061.png&quot; rel=&quot;nofollow&quot; target=&quot;_NEW&quot;&gt;\nhttp://leetleech.org/images/35685353064769212061.png&lt;/a&gt;\n &lt;a href=&quot;\nhttp://leetleech.org/images/13831599205895972996.png&quot; rel=&quot;nofollow&quot; target=&quot;_NEW&quot;&gt;\nhttp://leetleech.org/images/13831599205895972996.png&lt;/a&gt;\n &lt;a href=&quot;\nhttp://leetleech.org/images/99454186260215145571.png&quot; rel=&quot;nofollow&quot; target=&quot;_NEW&quot;&gt;\nhttp://leetleech.org/images/99454186260215145571.png&lt;/a&gt;\n &lt;a href=&quot;\nhttp://leetleech.org/images/01057635828300171846.png&quot; rel=&quot;nofollow&quot; target=&quot;_NEW&quot;&gt;\nhttp://leetleech.org/images/01057635828300171846.png&lt;/a&gt;","torrent":{"xt":"urn:btih:f8138af2fcbfed4e103ea32791da154d251a28dc","amp;dn":"Shredder+2003+DVDRip+Xvid+LKRG","amp;tr":["udp%3A%2F%2Ftracker.openbittorrent.com%3A80","udp%3A%2F%2Fopen.demonii.com%3A1337","udp%3A%2F%2Ftracker.coppersurfer.tk%3A6969","udp%3A%2F%2Fexodus.desync.com%3A6969"],"infoHash":"f8138af2fcbfed4e103ea32791da154d251a28dc","infoHashBuffer":{"type":"Buffer","data":[248,19,138,242,252,191,237,78,16,62,163,39,145,218,21,77,37,26,40,220]},"announce":[],"urlList":[]}}